<?xml version="1.0" encoding="UTF-8" standalone="no"?>
<!-- Created with Inkscape (http://www.inkscape.org/) -->

<svg
   xmlns:dc="http://purl.org/dc/elements/1.1/"
   xmlns:cc="http://creativecommons.org/ns#"
   xmlns:rdf="http://www.w3.org/1999/02/22-rdf-syntax-ns#"
   xmlns:svg="http://www.w3.org/2000/svg"
   xmlns="http://www.w3.org/2000/svg"
   xmlns:sodipodi="http://sodipodi.sourceforge.net/DTD/sodipodi-0.dtd"
   xmlns:inkscape="http://www.inkscape.org/namespaces/inkscape"
   width="955.19135"
   height="227.99561"
   id="svg2"
   version="1.1"
   inkscape:version="0.91 r13725"
   sodipodi:docname="peppro_logo_gray.svg">
  <defs
     id="defs4">
    <inkscape:path-effect
       effect="skeletal"
       id="path-effect915"
       is_visible="true"
       pattern="M 0,0 1,0"
       copytype="single_stretched"
       prop_scale="1000000"
       scale_y_rel="true"
       spacing="0"
       normal_offset="0"
       tang_offset="0"
       prop_units="true"
       vertical_pattern="false"
       fuse_tolerance="0" />
    <inkscape:path-effect
       effect="skeletal"
       id="path-effect915-6"
       is_visible="true"
       pattern="M 0,0 1,0"
       copytype="single_stretched"
       prop_scale="1.01"
       scale_y_rel="true"
       spacing="0"
       normal_offset="0"
       tang_offset="0"
       prop_units="true"
       vertical_pattern="false"
       fuse_tolerance="0" />
  </defs>
  <sodipodi:namedview
     id="base"
     pagecolor="#ffffff"
     bordercolor="#666666"
     borderopacity="1.0"
     inkscape:pageopacity="0.0"
     inkscape:pageshadow="2"
     inkscape:zoom="0.49497475"
     inkscape:cx="641.04413"
     inkscape:cy="463.1954"
     inkscape:document-units="px"
     inkscape:current-layer="layer1"
     showgrid="false"
     fit-margin-top="0"
     fit-margin-left="0"
     fit-margin-right="0"
     fit-margin-bottom="0"
     inkscape:window-width="1920"
     inkscape:window-height="1124"
     inkscape:window-x="0"
     inkscape:window-y="0"
     inkscape:window-maximized="1"
     inkscape:snap-global="false" />
  <metadata
     id="metadata7">
    <rdf:RDF>
      <cc:Work
         rdf:about="">
        <dc:format>image/svg+xml</dc:format>
        <dc:type
           rdf:resource="http://purl.org/dc/dcmitype/StillImage" />
        <dc:title></dc:title>
      </cc:Work>
    </rdf:RDF>
  </metadata>
  <g
     inkscape:label="Layer 1"
     inkscape:groupmode="layer"
     id="layer1"
     transform="translate(1709.3385,1366.0829)">
    <g
       id="g4836"
       style="stroke:#ead0bf;stroke-opacity:1"
       transform="matrix(0.5246427,0,0,0.5246427,-1432.1606,-1298.4311)">
      <path
         sodipodi:nodetypes="czzzc"
         inkscape:connector-curvature="0"
         id="path4750"
         d="m -430.17218,126.41632 c 0,0 209.2189,-2.18885 267.94297,-45.961942 58.72407,-43.773088 42.97762,-232.174248 62.629454,-191.051138 19.651831,41.123108 17.423741,112.237439 62.576367,149.748187 45.1526259,37.510748 122.050184,41.75329 129.352622,40.292802"
         style="fill:none;stroke:#ead0bf;stroke-width:1px;stroke-linecap:butt;stroke-linejoin:miter;stroke-opacity:1" />
      <path
         sodipodi:nodetypes="czzzc"
         inkscape:connector-curvature="0"
         id="path4750-0"
         d="m -424.18402,126.29694 c 0,0 203.81842,-0.40314 262.54249,-44.176229 58.72407,-43.77309 39.76334,-246.102821 62.629449,-191.051141 22.866113,55.051682 17.423737,112.7425255 62.576367,150.253266 45.1526295,37.51075 123.28119,38.359154 123.28119,38.359154"
         style="fill:none;stroke:#ead0bf;stroke-width:2;stroke-linecap:butt;stroke-linejoin:miter;stroke-miterlimit:4;stroke-dasharray:none;stroke-opacity:1" />
      <path
         sodipodi:nodetypes="czzzc"
         inkscape:connector-curvature="0"
         id="path4750-0-4"
         d="m -414.41814,125.7915 c 0,0 190.53543,3.13766 249.2595,-48.492572 58.72407,-51.630233 45.29905,-249.317118 63.52231,-193.908288 18.223258,55.408827 21.61754,121.1047497 66.770175,158.615489 45.15263,37.51075 112.658811,37.496936 112.658811,37.496936"
         style="fill:none;stroke:#ead0bf;stroke-width:4;stroke-linecap:butt;stroke-linejoin:miter;stroke-miterlimit:4;stroke-dasharray:none;stroke-opacity:1" />
      <path
         sodipodi:nodetypes="czzzc"
         inkscape:connector-curvature="0"
         id="path4750-0-4-2"
         d="m -404.61872,125.60103 c 0,0 181.66325,-2.74995 240.38732,-46.523044 58.72407,-43.77309 41.54906,-245.388566 62.62945,-191.051156 21.080395,54.337407 18.938966,114.2577669 64.091604,151.76851 C 7.6422838,77.30609 63.784252,79.312584 63.784252,79.312584"
         style="fill:none;stroke:#ead0bf;stroke-width:6;stroke-linecap:butt;stroke-linejoin:miter;stroke-miterlimit:4;stroke-dasharray:none;stroke-opacity:1" />
      <path
         sodipodi:nodetypes="czzzc"
         inkscape:connector-curvature="0"
         id="path4750-0-4-2-2"
         d="m -391.74962,125.12191 c 0,0 165.2161,-4.81358 223.94017,-48.586677 58.72407,-43.77309 48.87049,-247.174273 67.09374,-192.122583 18.223254,55.051691 23.984466,126.660598 67.708538,159.52848 43.724071,32.867883 86.268585,34.343932 86.268585,34.343932"
         style="fill:none;stroke:#ead0bf;stroke-width:8;stroke-linecap:butt;stroke-linejoin:miter;stroke-miterlimit:4;stroke-dasharray:none;stroke-opacity:1" />
    </g>
    <g
       id="g5269"
       transform="matrix(0.7353359,0,0,0.7353359,-1369.3683,-1375.8491)"
       style="stroke:#bfbfdf;stroke-opacity:1">
      <path
         sodipodi:nodetypes="czcc"
         inkscape:connector-curvature="0"
         id="path4750-05"
         d="m -72.737827,201.31059 c -31.724123,-0.47753 -93.789863,-0.73179 -111.101483,9.67142 -17.31162,10.40321 -28.13812,147.34663 -37.94286,101.12005 -24.52122,-121.76339 -116.55967,-94.14307 -240.54234,-96.22545"
         style="fill:none;stroke:#bfbfdf;stroke-width:1.03219068px;stroke-linecap:butt;stroke-linejoin:miter;stroke-opacity:1" />
      <path
         sodipodi:nodetypes="cscc"
         inkscape:connector-curvature="0"
         id="path4750-0-5"
         d="m -81.449977,201.14401 c 0,0 -90.579163,-1.57666 -105.379073,10.21376 -24.61708,19.61132 -23.44074,148.25701 -34.9303,98.23922 -22.87246,-113.30002 -107.80538,-93.09876 -235.1966,-93.50681"
         style="fill:none;stroke:#bfbfdf;stroke-width:2.09580517;stroke-linecap:butt;stroke-linejoin:miter;stroke-miterlimit:4;stroke-dasharray:none;stroke-opacity:1" />
      <path
         sodipodi:nodetypes="czcc"
         inkscape:connector-curvature="0"
         id="path4750-0-4-29"
         d="m -90.718791,200.92839 c -31.947459,0.0993 -75.247279,1.16516 -93.160579,7.66376 -17.91329,6.49861 -21.11805,133.63082 -38.06491,108.31029 -14.31068,-101.89153 -93.03064,-101.07394 -226.33377,-100.8628"
         style="fill:none;stroke:#bfbfdf;stroke-width:4.20149088;stroke-linecap:butt;stroke-linejoin:miter;stroke-miterlimit:4;stroke-dasharray:none;stroke-opacity:1" />
      <path
         sodipodi:nodetypes="cscc"
         inkscape:connector-curvature="0"
         id="path4750-0-4-2-0"
         d="m -96.023204,200.86829 c -0.148862,-0.007 -65.397016,0.37806 -83.069226,5.64556 -27.69428,8.25474 -29.50915,151.61457 -41.71181,102.24016 -22.12893,-101.47108 -113.31867,-92.32947 -214.87589,-92.79142"
         style="fill:none;stroke:#bfbfdf;stroke-width:6.23001528;stroke-linecap:butt;stroke-linejoin:miter;stroke-miterlimit:4;stroke-dasharray:none;stroke-opacity:1" />
      <path
         sodipodi:nodetypes="cscc"
         inkscape:connector-curvature="0"
         id="path4750-0-4-2-2-2"
         d="m -111.09266,200.84507 c 0,0 -58.78343,-0.7135 -69.87524,6.67966 -28.44118,18.95725 -28.85241,156.41519 -43.56211,96.79303 -26.65531,-98.97154 -106.59235,-88.15182 -199.79002,-88.03862"
         style="fill:none;stroke:#bfbfdf;stroke-width:8.31671524;stroke-linecap:butt;stroke-linejoin:miter;stroke-miterlimit:4;stroke-dasharray:none;stroke-opacity:1" />
    </g>
    <path
       inkscape:connector-curvature="0"
       id="path138"
       style="font-style:normal;font-variant:normal;font-weight:normal;font-stretch:normal;font-size:115.00834656px;line-height:1.25;font-family:'Franklin Gothic';-inkscape-font-specification:'Franklin Gothic, Normal';text-align:start;letter-spacing:0px;word-spacing:0px;writing-mode:lr-tb;text-anchor:start;fill:#cccccc;fill-opacity:1;stroke:#ffffff;stroke-width:1.15406287;stroke-miterlimit:4;stroke-dasharray:none;stroke-opacity:1"
       d="m -1374.8609,-1192.9145 0,-110.335 50.6038,0 q 13.5293,0 23.0201,3.9578 9.4908,3.9578 14.4179,11.5908 4.9272,7.633 4.9272,18.3757 0,9.2485 -4.1194,16.8815 -4.079,7.5925 -11.2678,11.7119 -5.8157,3.231 -12.5197,4.604 -6.7041,1.3733 -16.7603,1.3733 l -18.0122,0 0,41.84 z m 30.2896,-89.3343 0,25.6454 14.8621,0 q 8.5619,0 12.3178,-2.9484 3.7558,-2.9481 3.7558,-9.6118 0,-6.6638 -3.7558,-9.8543 -3.7559,-3.2309 -12.3178,-3.2309 z" />
    <path
       inkscape:connector-curvature="0"
       id="path140"
       style="font-style:normal;font-variant:normal;font-weight:normal;font-stretch:normal;font-size:115.00834656px;line-height:1.25;font-family:'Franklin Gothic';-inkscape-font-specification:'Franklin Gothic, Normal';text-align:start;letter-spacing:0px;word-spacing:0px;writing-mode:lr-tb;text-anchor:start;fill:#cccccc;fill-opacity:1;stroke:#ffffff;stroke-width:1.15406287;stroke-miterlimit:4;stroke-dasharray:none;stroke-opacity:1"
       d="m -1266.949,-1192.9145 0,-110.335 79.3991,0 0,23.1412 -49.1096,0 0,19.7085 31.259,0 0,23.1413 -31.259,0 0,21.2026 51.4117,0 0,23.1414 z" />
    <path
       inkscape:connector-curvature="0"
       id="path142"
       style="font-style:normal;font-variant:normal;font-weight:normal;font-stretch:normal;font-size:115.00834656px;line-height:1.25;font-family:'Franklin Gothic';-inkscape-font-specification:'Franklin Gothic, Normal';text-align:start;letter-spacing:0px;word-spacing:0px;writing-mode:lr-tb;text-anchor:start;fill:#cccccc;fill-opacity:1;stroke:#ffffff;stroke-width:1.15406287;stroke-miterlimit:4;stroke-dasharray:none;stroke-opacity:1"
       d="m -1171.9608,-1192.9145 0,-110.335 50.6039,0 q 13.5294,0 23.0202,3.9578 9.4907,3.9578 14.4178,11.5908 4.9271,7.633 4.9271,18.3757 0,9.2485 -4.1194,16.8815 -4.079,7.5925 -11.2676,11.7119 -5.8157,3.231 -12.5197,4.604 -6.7042,1.3733 -16.7605,1.3733 l -18.0122,0 0,41.84 z m 30.2896,-89.3343 0,25.6454 14.8621,0 q 8.5619,0 12.3179,-2.9484 3.7559,-2.9481 3.7559,-9.6118 0,-6.6638 -3.7559,-9.8543 -3.756,-3.2309 -12.3179,-3.2309 z" />
    <path
       inkscape:connector-curvature="0"
       id="path145"
       style="font-style:normal;font-variant:normal;font-weight:normal;font-stretch:normal;font-size:115.00834656px;line-height:1.25;font-family:'Franklin Gothic';-inkscape-font-specification:'Franklin Gothic, Normal';text-align:start;letter-spacing:0px;word-spacing:0px;writing-mode:lr-tb;text-anchor:start;fill:#cccccc;fill-opacity:1;stroke:#ffffff;stroke-width:1.15406287;stroke-miterlimit:4;stroke-dasharray:none;stroke-opacity:1"
       d="m -1065.1324,-1192.9145 0,-110.335 50.6039,0 q 13.5294,0 23.02019,3.9578 9.49077,3.9578 14.41784,11.5909 4.92719,7.6329 4.92719,18.3757 0,9.2483 -4.11942,16.8814 -4.07908,7.5925 -11.26777,11.7119 -5.81564,3.2309 -12.51973,4.6041 -6.7041,1.3732 -16.7602,1.3732 l -18.0122,0 0,41.84 z m 30.2898,-89.3343 0,25.6453 14.862,0 q 8.5619,0 12.3178,-2.9482 3.7559,-2.9481 3.7559,-9.6119 0,-6.6638 -3.7559,-9.8543 -3.7559,-3.2309 -12.3178,-3.2309 z" />
    <path
       inkscape:connector-curvature="0"
       id="path147"
       style="font-style:normal;font-variant:normal;font-weight:normal;font-stretch:normal;font-size:115.00834656px;line-height:1.25;font-family:'Franklin Gothic';-inkscape-font-specification:'Franklin Gothic, Normal';text-align:start;letter-spacing:0px;word-spacing:0px;writing-mode:lr-tb;text-anchor:start;fill:#cccccc;fill-opacity:1;stroke:#ffffff;stroke-width:1.15406287;stroke-miterlimit:4;stroke-dasharray:none;stroke-opacity:1"
       d="m -957.22037,-1192.9144 0,-110.335 48.3018,0 q 15.30636,0 25.32215,3.15 8.80417,2.706 14.29669,10.6216 5.53292,7.8754 5.53292,17.6488 0,11.8736 -7.59262,19.7085 -4.20014,4.4424 -12.76203,8.2388 l 20.03155,50.9673 -33.9244,0 -15.18518,-45.6364 -13.89286,0 0,45.6364 z m 30.12802,-89.3343 0,23.0201 17.85068,0 q 6.46179,0 10.09654,-3.0692 3.63478,-3.0694 3.63478,-8.5216 0,-5.4521 -3.59437,-8.4406 -3.55398,-2.9887 -10.13695,-2.9887 z" />
    <path
       inkscape:connector-curvature="0"
       id="path149"
       style="font-style:normal;font-variant:normal;font-weight:normal;font-stretch:normal;font-size:115.00834656px;line-height:1.25;font-family:'Franklin Gothic';-inkscape-font-specification:'Franklin Gothic, Normal';text-align:start;letter-spacing:0px;word-spacing:0px;writing-mode:lr-tb;text-anchor:start;fill:#cccccc;fill-opacity:1;stroke:#ffffff;stroke-width:1.15406287;stroke-miterlimit:4;stroke-dasharray:none;stroke-opacity:1"
       d="m -853.79145,-1248.0819 q 0,-17.4064 6.17913,-30.3705 6.17906,-12.9639 17.48719,-19.8295 11.30813,-6.8658 25.9683,-6.8658 12.03508,0 21.32391,4.3618 9.32922,4.3214 15.58906,12.0352 6.25987,7.7137 9.36961,17.6083 3.1501,9.8946 3.1501,21.0816 0,12.0755 -2.94819,22.7777 -2.90781,10.7024 -8.92534,18.8201 -5.97715,8.1175 -15.50831,12.8023 -9.49073,4.6444 -22.05084,4.6444 -10.41962,0 -19.46611,-3.5943 -9.00615,-3.5944 -15.8314,-10.7427 -6.78488,-7.1888 -10.5812,-17.9315 -3.75591,-10.7831 -3.75591,-24.7971 z m 31.74357,0 q 0,35.0551 17.89105,35.0551 10.01577,0 13.85246,-9.7329 3.83669,-9.7333 3.83669,-27.1395 0,-33.238 -17.68915,-33.238 -6.58296,0 -10.54079,4.281 -3.95784,4.2809 -5.65407,12.0755 -1.69619,7.7541 -1.69619,18.6988 z" />
    <path
       d="m -1088.0463,-779.87403 0,-110.335 50.6038,0 q 13.5293,0 23.0201,3.9578 9.4908,3.9578 14.4179,11.5908 4.92725,7.633 4.92725,18.3757 0,9.2485 -4.1194,16.8815 -4.07905,7.5925 -11.26785,11.7119 -5.8157,3.231 -12.5197,4.604 -6.7041,1.3733 -16.7603,1.3733 l -18.0122,0 0,41.84 z m 30.2896,-89.3343 0,25.6454 14.8621,0 q 8.5619,0 12.3178,-2.9484 3.7558,-2.9481 3.7558,-9.6118 0,-6.6638 -3.7558,-9.8543 -3.7559,-3.2309 -12.3178,-3.2309 z"
       style="font-style:normal;font-variant:normal;font-weight:normal;font-stretch:normal;font-size:115.00834656px;line-height:1.25;font-family:'Franklin Gothic';-inkscape-font-specification:'Franklin Gothic, Normal';text-align:start;letter-spacing:0px;word-spacing:0px;writing-mode:lr-tb;text-anchor:start;opacity:0.25;fill:#000080;fill-opacity:1;stroke:#ffffff;stroke-width:1.15406287;stroke-miterlimit:4;stroke-dasharray:none;stroke-opacity:1"
       id="path4153"
       inkscape:connector-curvature="0" />
    <path
       d="m -980.13435,-779.87403 0,-110.335 79.3991,0 0,23.1412 -49.1096,0 0,19.7085 31.259,0 0,23.1413 -31.259,0 0,21.2026 51.4117,0 0,23.1414 z"
       style="font-style:normal;font-variant:normal;font-weight:normal;font-stretch:normal;font-size:115.00834656px;line-height:1.25;font-family:'Franklin Gothic';-inkscape-font-specification:'Franklin Gothic, Normal';text-align:start;letter-spacing:0px;word-spacing:0px;writing-mode:lr-tb;text-anchor:start;opacity:0.25;fill:#000080;fill-opacity:1;stroke:#ffffff;stroke-width:1.15406287;stroke-miterlimit:4;stroke-dasharray:none;stroke-opacity:1"
       id="path4155"
       inkscape:connector-curvature="0" />
    <path
       d="m -885.14615,-779.87403 0,-110.335 50.6039,0 q 13.5294,0 23.0202,3.9578 9.4907,3.9578 14.4178,11.5908 4.9271,7.633 4.9271,18.3757 0,9.2485 -4.1194,16.8815 -4.079,7.5925 -11.2676,11.7119 -5.8157,3.231 -12.5197,4.604 -6.7042,1.3733 -16.7605,1.3733 l -18.0122,0 0,41.84 z m 30.2896,-89.3343 0,25.6454 14.8621,0 q 8.5619,0 12.3179,-2.9484 3.7559,-2.9481 3.7559,-9.6118 0,-6.6638 -3.7559,-9.8543 -3.756,-3.2309 -12.3179,-3.2309 z"
       style="font-style:normal;font-variant:normal;font-weight:normal;font-stretch:normal;font-size:115.00834656px;line-height:1.25;font-family:'Franklin Gothic';-inkscape-font-specification:'Franklin Gothic, Normal';text-align:start;letter-spacing:0px;word-spacing:0px;writing-mode:lr-tb;text-anchor:start;opacity:0.25;fill:#000080;fill-opacity:1;stroke:#ffffff;stroke-width:1.15406287;stroke-miterlimit:4;stroke-dasharray:none;stroke-opacity:1"
       id="path4157"
       inkscape:connector-curvature="0" />
    <path
       d="m -778.31775,-779.87403 0,-110.335 50.6039,0 q 13.5294,0 23.0202,3.9578 9.4908,3.9578 14.4179,11.5909 4.9272,7.6329 4.9272,18.3757 0,9.2483 -4.1195,16.8814 -4.079,7.5925 -11.2677,11.7119 -5.8157,3.2309 -12.5198,4.6041 -6.704,1.3732 -16.7602,1.3732 l -18.0122,0 0,41.84 z m 30.2898,-89.3343 0,25.6453 14.862,0 q 8.5619,0 12.3178,-2.9482 3.7559,-2.9481 3.7559,-9.6119 0,-6.6638 -3.7559,-9.8543 -3.7559,-3.2309 -12.3178,-3.2309 z"
       style="font-style:normal;font-variant:normal;font-weight:normal;font-stretch:normal;font-size:115.00834656px;line-height:1.25;font-family:'Franklin Gothic';-inkscape-font-specification:'Franklin Gothic, Normal';text-align:start;letter-spacing:0px;word-spacing:0px;writing-mode:lr-tb;text-anchor:start;opacity:0.25;fill:#aa4400;fill-opacity:1;stroke:#ffffff;stroke-width:1.15406287;stroke-miterlimit:4;stroke-dasharray:none;stroke-opacity:1"
       id="path4159"
       inkscape:connector-curvature="0" />
    <path
       d="m -670.40565,-779.87393 0,-110.335 48.3018,0 q 15.3063,0 25.3221,3.15 8.8042,2.706 14.2967,10.6216 5.5329,7.8754 5.5329,17.6488 0,11.8736 -7.5926,19.7085 -4.2001,4.4424 -12.762,8.2388 l 20.0315,50.9673 -33.9244,0 -15.1851,-45.6364 -13.8929,0 0,45.6364 z m 30.128,-89.3343 0,23.0201 17.8507,0 q 6.4618,0 10.0965,-3.0692 3.6348,-3.0694 3.6348,-8.5216 0,-5.4521 -3.5944,-8.4406 -3.554,-2.9887 -10.1369,-2.9887 z"
       style="font-style:normal;font-variant:normal;font-weight:normal;font-stretch:normal;font-size:115.00834656px;line-height:1.25;font-family:'Franklin Gothic';-inkscape-font-specification:'Franklin Gothic, Normal';text-align:start;letter-spacing:0px;word-spacing:0px;writing-mode:lr-tb;text-anchor:start;opacity:0.25;fill:#aa4400;fill-opacity:1;stroke:#ffffff;stroke-width:1.15406287;stroke-miterlimit:4;stroke-dasharray:none;stroke-opacity:1"
       id="path4161"
       inkscape:connector-curvature="0" />
    <path
       d="m -566.97675,-835.04143 q 0,-17.4064 6.1791,-30.3705 6.1791,-12.9639 17.4872,-19.8295 11.3081,-6.8658 25.9683,-6.8658 12.0351,0 21.3239,4.3618 9.3292,4.3214 15.5891,12.0352 6.2599,7.7137 9.3696,17.6083 3.1501,9.8946 3.1501,21.0816 0,12.0755 -2.9482,22.7777 -2.9078,10.7024 -8.9253,18.8201 -5.9772,8.1175 -15.5083,12.8023 -9.4908,4.6444 -22.0509,4.6444 -10.4196,0 -19.4661,-3.5943 -9.0061,-3.5944 -15.8314,-10.7427 -6.7849,-7.1888 -10.5812,-17.9315 -3.7559,-10.7831 -3.7559,-24.7971 z m 31.7436,0 q 0,35.0551 17.891,35.0551 10.0158,0 13.8525,-9.7329 3.8367,-9.7333 3.8367,-27.1395 0,-33.238 -17.6892,-33.238 -6.5829,0 -10.5408,4.281 -3.9578,4.2809 -5.654,12.0755 -1.6962,7.7541 -1.6962,18.6988 z"
       style="font-style:normal;font-variant:normal;font-weight:normal;font-stretch:normal;font-size:115.00834656px;line-height:1.25;font-family:'Franklin Gothic';-inkscape-font-specification:'Franklin Gothic, Normal';text-align:start;letter-spacing:0px;word-spacing:0px;writing-mode:lr-tb;text-anchor:start;opacity:0.25;fill:#aa4400;fill-opacity:1;stroke:#ffffff;stroke-width:1.15406287;stroke-miterlimit:4;stroke-dasharray:none;stroke-opacity:1"
       id="path4163"
       inkscape:connector-curvature="0" />
  </g>
</svg>
