<?xml version="1.0" encoding="UTF-8" standalone="no"?>
<!-- Created with Inkscape (http://www.inkscape.org/) -->

<svg
   xmlns:dc="http://purl.org/dc/elements/1.1/"
   xmlns:cc="http://creativecommons.org/ns#"
   xmlns:rdf="http://www.w3.org/1999/02/22-rdf-syntax-ns#"
   xmlns:svg="http://www.w3.org/2000/svg"
   xmlns="http://www.w3.org/2000/svg"
   xmlns:sodipodi="http://sodipodi.sourceforge.net/DTD/sodipodi-0.dtd"
   xmlns:inkscape="http://www.inkscape.org/namespaces/inkscape"
   width="496.99466"
   height="248.38213"
   id="svg2"
   version="1.1"
   inkscape:version="0.91 r13725"
   sodipodi:docname="peppro_logo2.svg">
  <defs
     id="defs4">
    <inkscape:path-effect
       effect="skeletal"
       id="path-effect915"
       is_visible="true"
       pattern="M 0,0 1,0"
       copytype="single_stretched"
       prop_scale="1000000"
       scale_y_rel="true"
       spacing="0"
       normal_offset="0"
       tang_offset="0"
       prop_units="true"
       vertical_pattern="false"
       fuse_tolerance="0" />
    <inkscape:path-effect
       effect="skeletal"
       id="path-effect915-6"
       is_visible="true"
       pattern="M 0,0 1,0"
       copytype="single_stretched"
       prop_scale="1.01"
       scale_y_rel="true"
       spacing="0"
       normal_offset="0"
       tang_offset="0"
       prop_units="true"
       vertical_pattern="false"
       fuse_tolerance="0" />
  </defs>
  <sodipodi:namedview
     id="base"
     pagecolor="#ffffff"
     bordercolor="#666666"
     borderopacity="1.0"
     inkscape:pageopacity="0.0"
     inkscape:pageshadow="2"
     inkscape:zoom="0.98994949"
     inkscape:cx="161.61892"
     inkscape:cy="90.884251"
     inkscape:document-units="px"
     inkscape:current-layer="layer1"
     showgrid="false"
     fit-margin-top="0"
     fit-margin-left="0"
     fit-margin-right="0"
     fit-margin-bottom="0"
     inkscape:window-width="1920"
     inkscape:window-height="1124"
     inkscape:window-x="0"
     inkscape:window-y="0"
     inkscape:window-maximized="1"
     inkscape:snap-global="false" />
  <metadata
     id="metadata7">
    <rdf:RDF>
      <cc:Work
         rdf:about="">
        <dc:format>image/svg+xml</dc:format>
        <dc:type
           rdf:resource="http://purl.org/dc/dcmitype/StillImage" />
        <dc:title />
      </cc:Work>
    </rdf:RDF>
  </metadata>
  <g
     inkscape:label="Layer 1"
     inkscape:groupmode="layer"
     id="layer1"
     transform="translate(1625.3169,1377.9844)">
    <g
       id="g4836"
       style="stroke:#aa4400;stroke-opacity:1"
       transform="matrix(0.4496314,0,0,0.4496314,-1192.4894,-1303.3371)">
      <path
         sodipodi:nodetypes="czzzc"
         inkscape:connector-curvature="0"
         id="path4750"
         d="m -430.17218,126.41632 c 0,0 209.2189,-2.18885 267.94297,-45.961942 58.72407,-43.773088 42.97762,-251.234838 62.629454,-210.111728 19.651831,41.123107 17.423741,131.298029 62.576367,168.808777 45.1526259,37.510748 122.050184,41.75329 129.352622,40.292802"
         style="fill:none;stroke:#aa4400;stroke-width:1px;stroke-linecap:butt;stroke-linejoin:miter;stroke-opacity:1" />
      <path
         sodipodi:nodetypes="czzzc"
         inkscape:connector-curvature="0"
         id="path4750-0"
         d="m -424.18402,126.29694 c 0,0 203.81842,-0.40314 262.54249,-44.176229 58.72407,-43.77309 39.76334,-265.163411 62.629449,-210.111731 22.866113,55.051681 17.423737,131.8031155 62.576367,169.313856 45.1526295,37.51075 123.28119,38.359154 123.28119,38.359154"
         style="fill:none;stroke:#aa4400;stroke-width:2;stroke-linecap:butt;stroke-linejoin:miter;stroke-miterlimit:4;stroke-dasharray:none;stroke-opacity:1" />
      <path
         sodipodi:nodetypes="czzzc"
         inkscape:connector-curvature="0"
         id="path4750-0-4"
         d="m -414.41814,125.7915 c 0,0 190.53543,3.13766 249.2595,-48.492572 58.72407,-51.630233 45.29905,-268.377708 63.52231,-212.968878 18.223258,55.408826 21.61754,140.1653397 66.770175,177.676079 45.15263,37.51075 112.658811,37.496936 112.658811,37.496936"
         style="fill:none;stroke:#aa4400;stroke-width:4;stroke-linecap:butt;stroke-linejoin:miter;stroke-miterlimit:4;stroke-dasharray:none;stroke-opacity:1" />
      <path
         sodipodi:nodetypes="czzzc"
         inkscape:connector-curvature="0"
         id="path4750-0-4-2"
         d="m -404.61872,125.60103 c 0,0 181.66325,-2.74995 240.38732,-46.523044 58.72407,-43.77309 41.54906,-264.449156 62.62945,-210.111746 21.080395,54.337406 18.938966,133.3183569 64.091604,170.8291 C 7.6422838,77.30609 63.784252,79.312584 63.784252,79.312584"
         style="fill:none;stroke:#aa4400;stroke-width:6;stroke-linecap:butt;stroke-linejoin:miter;stroke-miterlimit:4;stroke-dasharray:none;stroke-opacity:1" />
      <path
         sodipodi:nodetypes="czzzc"
         inkscape:connector-curvature="0"
         id="path4750-0-4-2-2"
         d="m -391.74962,125.12191 c 0,0 165.2161,-4.81358 223.94017,-48.586677 58.72407,-43.77309 48.87049,-266.234863 67.09374,-211.183173 18.223254,55.05169 23.984466,145.721188 67.708538,178.58907 43.724071,32.867883 86.268585,34.343932 86.268585,34.343932"
         style="fill:none;stroke:#aa4400;stroke-width:8;stroke-linecap:butt;stroke-linejoin:miter;stroke-miterlimit:4;stroke-dasharray:none;stroke-opacity:1" />
    </g>
    <g
       id="g5269"
       transform="matrix(0.55579357,0,0,0.55579357,-1358.9474,-1316.8164)">
      <path
         sodipodi:nodetypes="czcc"
         inkscape:connector-curvature="0"
         id="path4750-05"
         d="m -72.737827,201.31059 c -31.724123,-0.47753 -93.789863,-0.73179 -111.101483,9.67142 -17.31162,10.40321 -28.13812,160.94586 -37.94286,114.71928 -24.52122,-121.76339 -116.55967,-107.7423 -240.54234,-109.82468"
         style="fill:none;stroke:#000080;stroke-width:1.03219068px;stroke-linecap:butt;stroke-linejoin:miter;stroke-opacity:1" />
      <path
         sodipodi:nodetypes="cscc"
         inkscape:connector-curvature="0"
         id="path4750-0-5"
         d="m -81.449977,201.14401 c 0,0 -90.579163,-1.57666 -105.379073,10.21376 -24.61708,19.61132 -23.44074,161.85624 -34.9303,111.83845 -22.87246,-113.30002 -107.80538,-106.69799 -235.1966,-107.10604"
         style="fill:none;stroke:#000080;stroke-width:2.09580517;stroke-linecap:butt;stroke-linejoin:miter;stroke-miterlimit:4;stroke-dasharray:none;stroke-opacity:1" />
      <path
         sodipodi:nodetypes="czcc"
         inkscape:connector-curvature="0"
         id="path4750-0-4-29"
         d="m -90.718791,200.92839 c -31.947459,0.0993 -75.247279,1.16516 -93.160579,7.66376 -17.91329,6.49861 -21.11805,147.23005 -38.06491,121.90952 -14.31068,-101.89153 -93.03064,-114.67317 -226.33377,-114.46203"
         style="fill:none;stroke:#000080;stroke-width:4.20149088;stroke-linecap:butt;stroke-linejoin:miter;stroke-miterlimit:4;stroke-dasharray:none;stroke-opacity:1" />
      <path
         sodipodi:nodetypes="cscc"
         inkscape:connector-curvature="0"
         id="path4750-0-4-2-0"
         d="m -96.023204,200.86829 c -0.148862,-0.007 -65.397016,0.37806 -83.069226,5.64556 -27.69428,8.25474 -29.50915,165.2138 -41.71181,115.83939 -22.12893,-101.47108 -113.31867,-105.9287 -214.87589,-106.39065"
         style="fill:none;stroke:#000080;stroke-width:6.23001528;stroke-linecap:butt;stroke-linejoin:miter;stroke-miterlimit:4;stroke-dasharray:none;stroke-opacity:1" />
      <path
         sodipodi:nodetypes="cscc"
         inkscape:connector-curvature="0"
         id="path4750-0-4-2-2-2"
         d="m -111.09266,200.84507 c 0,0 -58.78343,-0.7135 -69.87524,6.67966 -28.44118,18.95725 -28.85241,170.01442 -43.56211,110.39226 -26.65531,-98.97154 -106.59235,-101.75105 -199.79002,-101.63785"
         style="fill:none;stroke:#000080;stroke-width:8.31671524;stroke-linecap:butt;stroke-linejoin:miter;stroke-miterlimit:4;stroke-dasharray:none;stroke-opacity:1" />
    </g>
    <g
       id="g4190"
       transform="translate(0,-50)">
      <path
         d="m -1621.4955,-1158.8132 0,-87.664 40.2061,0 q 10.7495,0 18.2901,3.1446 7.5407,3.1446 11.4554,9.2092 3.9147,6.0646 3.9147,14.6 0,7.3481 -3.273,13.4127 -3.2408,6.0325 -8.9525,9.3055 -4.6206,2.567 -9.9472,3.658 -5.3266,1.091 -13.3165,1.091 l -14.3112,0 0,33.243 z m 24.0659,-70.9783 0,20.3758 11.8084,0 q 6.8026,0 9.7868,-2.3425 2.9842,-2.3424 2.9842,-7.6369 0,-5.2945 -2.9842,-7.8294 -2.9842,-2.567 -9.7868,-2.567 z"
         style="font-style:normal;font-variant:normal;font-weight:normal;font-stretch:normal;font-size:115.00834656px;line-height:1.25;font-family:'Franklin Gothic';-inkscape-font-specification:'Franklin Gothic, Normal';text-align:start;letter-spacing:0px;word-spacing:0px;writing-mode:lr-tb;text-anchor:start;fill:#000080;fill-opacity:1;stroke:#ffffff;stroke-width:0.91693282;stroke-miterlimit:4;stroke-dasharray:none;stroke-opacity:1"
         id="path138"
         inkscape:connector-curvature="0" />
      <path
         d="m -1535.7567,-1158.8132 0,-87.664 63.0848,0 0,18.3863 -39.0189,0 0,15.6589 24.836,0 0,18.3863 -24.836,0 0,16.8462 40.8479,0 0,18.3863 z"
         style="font-style:normal;font-variant:normal;font-weight:normal;font-stretch:normal;font-size:115.00834656px;line-height:1.25;font-family:'Franklin Gothic';-inkscape-font-specification:'Franklin Gothic, Normal';text-align:start;letter-spacing:0px;word-spacing:0px;writing-mode:lr-tb;text-anchor:start;fill:#000080;fill-opacity:1;stroke:#ffffff;stroke-width:0.91693282;stroke-miterlimit:4;stroke-dasharray:none;stroke-opacity:1"
         id="path140"
         inkscape:connector-curvature="0" />
      <path
         d="m -1460.286,-1158.8132 0,-87.664 40.2061,0 q 10.7494,0 18.2901,3.1446 7.5406,3.1446 11.4553,9.2092 3.9148,6.0646 3.9148,14.6 0,7.3481 -3.273,13.4127 -3.2409,6.0325 -8.9525,9.3055 -4.6207,2.567 -9.9473,3.658 -5.3265,1.091 -13.3164,1.091 l -14.3112,0 0,33.243 z m 24.0659,-70.9783 0,20.3758 11.8083,0 q 6.8027,0 9.7868,-2.3425 2.9842,-2.3424 2.9842,-7.6369 0,-5.2945 -2.9842,-7.8294 -2.9841,-2.567 -9.7868,-2.567 z"
         style="font-style:normal;font-variant:normal;font-weight:normal;font-stretch:normal;font-size:115.00834656px;line-height:1.25;font-family:'Franklin Gothic';-inkscape-font-specification:'Franklin Gothic, Normal';text-align:start;letter-spacing:0px;word-spacing:0px;writing-mode:lr-tb;text-anchor:start;fill:#000080;fill-opacity:1;stroke:#ffffff;stroke-width:0.91693282;stroke-miterlimit:4;stroke-dasharray:none;stroke-opacity:1"
         id="path142"
         inkscape:connector-curvature="0" />
    </g>
    <path
       inkscape:connector-curvature="0"
       id="path145"
       style="font-style:normal;font-variant:normal;font-weight:normal;font-stretch:normal;font-size:115.00834656px;line-height:1.25;font-family:'Franklin Gothic';-inkscape-font-specification:'Franklin Gothic, Normal';text-align:start;letter-spacing:0px;word-spacing:0px;writing-mode:lr-tb;text-anchor:start;fill:#aa4400;fill-opacity:1;stroke:#ffffff;stroke-width:0.91693282;stroke-miterlimit:4;stroke-dasharray:none;stroke-opacity:1"
       d="m -1375.408,-1155.6924 0,-87.664 40.2061,0 q 10.7494,0 18.29,3.1446 7.5407,3.1446 11.4554,9.2092 3.9147,6.0646 3.9147,14.6 0,7.3481 -3.2729,13.4127 -3.2409,6.0326 -8.9525,9.3055 -4.6207,2.567 -9.9473,3.658 -5.3266,1.091 -13.3164,1.091 l -14.3112,0 0,33.243 z m 24.0659,-70.9783 0,20.3758 11.8083,0 q 6.8026,0 9.7868,-2.3424 2.9842,-2.3424 2.9842,-7.637 0,-5.2944 -2.9842,-7.8294 -2.9842,-2.567 -9.7868,-2.567 z" />
    <path
       inkscape:connector-curvature="0"
       id="path147"
       style="font-style:normal;font-variant:normal;font-weight:normal;font-stretch:normal;font-size:115.00834656px;line-height:1.25;font-family:'Franklin Gothic';-inkscape-font-specification:'Franklin Gothic, Normal';text-align:start;letter-spacing:0px;word-spacing:0px;writing-mode:lr-tb;text-anchor:start;fill:#aa4400;fill-opacity:1;stroke:#ffffff;stroke-width:0.91693282;stroke-miterlimit:4;stroke-dasharray:none;stroke-opacity:1"
       d="m -1289.6693,-1155.6924 0,-87.664 38.3772,0 q 12.1613,0 20.119,2.5028 6.9952,2.1499 11.3591,8.4392 4.3961,6.2571 4.3961,14.0224 0,9.4338 -6.0325,15.6588 -3.3372,3.5297 -10.1398,6.5459 l 15.9156,40.4949 -26.9538,0 -12.0651,-36.2592 -11.0382,0 0,36.2592 z m 23.9376,-70.9783 0,18.2901 14.1828,0 q 5.1341,0 8.022,-2.4387 2.8879,-2.4387 2.8879,-6.7706 0,-4.3318 -2.8558,-6.7063 -2.8237,-2.3745 -8.0541,-2.3745 z" />
    <path
       inkscape:connector-curvature="0"
       id="path149"
       style="font-style:normal;font-variant:normal;font-weight:normal;font-stretch:normal;font-size:115.00834656px;line-height:1.25;font-family:'Franklin Gothic';-inkscape-font-specification:'Franklin Gothic, Normal';text-align:start;letter-spacing:0px;word-spacing:0px;writing-mode:lr-tb;text-anchor:start;fill:#aa4400;fill-opacity:1;stroke:#ffffff;stroke-width:0.91693282;stroke-miterlimit:4;stroke-dasharray:none;stroke-opacity:1"
       d="m -1207.4922,-1199.4602 q 0,-13.8299 4.9094,-24.1301 4.9095,-10.3002 13.8941,-15.7551 8.9846,-5.455 20.6325,-5.455 9.5622,0 16.9424,3.4655 7.4123,3.4334 12.3859,9.5622 4.9736,6.1288 7.4444,13.9903 2.5028,7.8616 2.5028,16.7499 0,9.5943 -2.3424,18.0975 -2.3103,8.5033 -7.0914,14.953 -4.749,6.4496 -12.3218,10.1718 -7.5406,3.6902 -17.5199,3.6902 -8.2787,0 -15.4664,-2.8559 -7.1556,-2.8558 -12.5784,-8.5353 -5.3908,-5.7117 -8.4071,-14.2471 -2.9841,-8.5674 -2.9841,-19.7019 z m 25.2211,0 q 0,27.8523 14.2149,27.8523 7.9578,0 11.0061,-7.7332 3.0484,-7.7332 3.0484,-21.5631 0,-26.4083 -14.0545,-26.4083 -5.2303,0 -8.3749,3.4013 -3.1447,3.4014 -4.4924,9.5943 -1.3476,6.1609 -1.3476,14.8567 z" />
  </g>
</svg>
