<?xml version="1.0" encoding="UTF-8" standalone="no"?>
<!-- Created with Inkscape (http://www.inkscape.org/) -->

<svg
   xmlns:dc="http://purl.org/dc/elements/1.1/"
   xmlns:cc="http://creativecommons.org/ns#"
   xmlns:rdf="http://www.w3.org/1999/02/22-rdf-syntax-ns#"
   xmlns:svg="http://www.w3.org/2000/svg"
   xmlns="http://www.w3.org/2000/svg"
   xmlns:sodipodi="http://sodipodi.sourceforge.net/DTD/sodipodi-0.dtd"
   xmlns:inkscape="http://www.inkscape.org/namespaces/inkscape"
   width="9503.1836"
   height="1763.3906"
   id="svg2"
   version="1.1"
   inkscape:version="0.92.4 (33fec40, 2019-01-16)"
   sodipodi:docname="peppro_inline_logo.svg">
  <defs
     id="defs4">
    <inkscape:path-effect
       effect="skeletal"
       id="path-effect915"
       is_visible="true"
       pattern="M 0,0 H 1"
       copytype="single_stretched"
       prop_scale="1000000"
       scale_y_rel="true"
       spacing="0"
       normal_offset="0"
       tang_offset="0"
       prop_units="true"
       vertical_pattern="false"
       fuse_tolerance="0" />
    <inkscape:path-effect
       effect="skeletal"
       id="path-effect915-6"
       is_visible="true"
       pattern="M 0,0 H 1"
       copytype="single_stretched"
       prop_scale="1.01"
       scale_y_rel="true"
       spacing="0"
       normal_offset="0"
       tang_offset="0"
       prop_units="true"
       vertical_pattern="false"
       fuse_tolerance="0" />
  </defs>
  <sodipodi:namedview
     id="base"
     pagecolor="#ffffff"
     bordercolor="#666666"
     borderopacity="1.0"
     inkscape:pageopacity="0.0"
     inkscape:pageshadow="2"
     inkscape:zoom="0.030935922"
     inkscape:cx="-5581.5849"
     inkscape:cy="-2055.1487"
     inkscape:document-units="px"
     inkscape:current-layer="layer1"
     showgrid="false"
     fit-margin-top="0"
     fit-margin-left="0"
     fit-margin-right="0"
     fit-margin-bottom="0"
     inkscape:window-width="1920"
     inkscape:window-height="1124"
     inkscape:window-x="0"
     inkscape:window-y="0"
     inkscape:window-maximized="1"
     inkscape:snap-global="false" />
  <metadata
     id="metadata7">
    <rdf:RDF>
      <cc:Work
         rdf:about="">
        <dc:format>image/svg+xml</dc:format>
        <dc:type
           rdf:resource="http://purl.org/dc/dcmitype/StillImage" />
        <dc:title />
      </cc:Work>
    </rdf:RDF>
  </metadata>
  <g
     inkscape:label="Layer 1"
     inkscape:groupmode="layer"
     id="layer1"
     transform="translate(8272.2138,1759.3322)">
    <g
       id="g1133"
       transform="translate(-56.574387)">
      <path
         d="M -8206.8132,-33.801674 V -1721.4721 h 774.0302 q 206.9436,0 352.1127,60.5387 145.1694,60.5387 220.5338,177.292 75.3647,116.7531 75.3647,281.0723 0,141.4628 -63.0098,258.21612 -62.3917,116.13533 -172.3499,179.14512 -88.9546,49.41915 -191.4998,70.42239 -102.5452,21.00327 -256.3629,21.00327 h -275.5129 v 639.980526 z m 463.3061,-1366.444726 v 392.2659 h 227.3293 q 130.961,0 188.411,-45.0952 57.4501,-45.0952 57.4501,-147.0223 0,-101.9274 -57.4501,-150.7292 -57.45,-49.4192 -188.411,-49.4192 z"
         style="font-style:normal;font-variant:normal;font-weight:normal;font-stretch:normal;font-size:115.00834656px;line-height:1.25;font-family:'Franklin Gothic';-inkscape-font-specification:'Franklin Gothic, Normal';font-variant-ligatures:normal;font-variant-caps:normal;font-variant-numeric:normal;text-align:start;letter-spacing:0px;word-spacing:0px;writing-mode:lr-tb;text-anchor:start;fill:#000080;fill-opacity:1;stroke:#ffffff;stroke-width:17.65239143;stroke-miterlimit:4;stroke-dasharray:none;stroke-opacity:1"
         id="path138"
         inkscape:connector-curvature="0" />
      <path
         d="M -6556.2073,-33.801674 V -1721.4721 h 1214.4802 v 353.966 h -751.1741 v 301.458 h 478.1322 v 353.96583 h -478.1322 v 324.31454 h 786.3853 v 353.966056 z"
         style="font-style:normal;font-variant:normal;font-weight:normal;font-stretch:normal;font-size:115.00834656px;line-height:1.25;font-family:'Franklin Gothic';-inkscape-font-specification:'Franklin Gothic, Normal';font-variant-ligatures:normal;font-variant-caps:normal;font-variant-numeric:normal;text-align:start;letter-spacing:0px;word-spacing:0px;writing-mode:lr-tb;text-anchor:start;fill:#000080;fill-opacity:1;stroke:#ffffff;stroke-width:17.65239143;stroke-miterlimit:4;stroke-dasharray:none;stroke-opacity:1"
         id="path140"
         inkscape:connector-curvature="0" />
      <path
         d="M -5103.2789,-33.801674 V -1721.4721 h 774.0305 q 206.9435,0 352.1127,60.5387 145.1692,60.5387 220.5338,177.292 75.3644,116.7531 75.3644,281.0723 0,141.4628 -63.0097,258.21612 -62.3918,116.13533 -172.3499,179.14512 -88.9547,49.41915 -191.4999,70.42239 -102.545,21.00327 -256.3628,21.00327 h -275.5128 v 639.980526 z m 463.3063,-1366.444726 v 392.2659 h 227.3289 q 130.9613,0 188.4113,-45.0952 57.4501,-45.0952 57.4501,-147.0223 0,-101.9274 -57.4501,-150.7292 -57.45,-49.4192 -188.4113,-49.4192 z"
         style="font-style:normal;font-variant:normal;font-weight:normal;font-stretch:normal;font-size:115.00834656px;line-height:1.25;font-family:'Franklin Gothic';-inkscape-font-specification:'Franklin Gothic, Normal';font-variant-ligatures:normal;font-variant-caps:normal;font-variant-numeric:normal;text-align:start;letter-spacing:0px;word-spacing:0px;writing-mode:lr-tb;text-anchor:start;fill:#000080;fill-opacity:1;stroke:#ffffff;stroke-width:17.65239143;stroke-miterlimit:4;stroke-dasharray:none;stroke-opacity:1"
         id="path142"
         inkscape:connector-curvature="0" />
      <path
         d="M -3469.2448,-33.801799 V -1721.472 h 774.0305 q 206.9434,0 352.1127,60.5387 145.1694,60.5387 220.5338,177.292 75.3644,116.7531 75.3644,281.0723 0,141.4628 -63.0097,258.21593 -62.3918,116.13579 -172.3498,179.14509 -88.9548,49.41939 -191.4998,70.42263 -102.5454,21.00327 -256.363,21.00327 h -275.5128 v 639.980281 z m 463.3063,-1366.444501 v 392.2661 h 227.3289 q 130.9613,0 188.4111,-45.0952 57.4502,-45.0951 57.4502,-147.0227 0,-101.9272 -57.4502,-150.7288 -57.4498,-49.4194 -188.4111,-49.4194 z"
         style="font-style:normal;font-variant:normal;font-weight:normal;font-stretch:normal;font-size:115.00834656px;line-height:1.25;font-family:'Franklin Gothic';-inkscape-font-specification:'Franklin Gothic, Normal';font-variant-ligatures:normal;font-variant-caps:normal;font-variant-numeric:normal;text-align:start;letter-spacing:0px;word-spacing:0px;writing-mode:lr-tb;text-anchor:start;fill:#aa4400;fill-opacity:1;stroke:#ffffff;stroke-width:17.65239143;stroke-miterlimit:4;stroke-dasharray:none;stroke-opacity:1"
         id="path145"
         inkscape:connector-curvature="0" />
      <path
         d="M -1818.6389,-33.801799 V -1721.472 h 738.8191 q 234.12413,0 387.32405,48.1839 134.66771,41.3887 218.68059,162.4661 84.63059,120.4597 84.63059,269.9531 0,181.616 -116.13545,301.458 -64.24514,67.95154 -195.20636,126.01909 l 306.39991,779.590011 H -913.02952 L -1145.3004,-731.84966 h -212.5031 v 698.047861 z m 460.8354,-1366.444501 v 352.1127 h 273.0418 q 98.83864,0 154.43541,-46.9483 55.59678,-46.9482 55.59678,-130.3435 0,-83.395 -54.97905,-129.108 -54.36128,-45.7129 -155.05314,-45.7129 z"
         style="font-style:normal;font-variant:normal;font-weight:normal;font-stretch:normal;font-size:115.00834656px;line-height:1.25;font-family:'Franklin Gothic';-inkscape-font-specification:'Franklin Gothic, Normal';font-variant-ligatures:normal;font-variant-caps:normal;font-variant-numeric:normal;text-align:start;letter-spacing:0px;word-spacing:0px;writing-mode:lr-tb;text-anchor:start;fill:#aa4400;fill-opacity:1;stroke:#ffffff;stroke-width:17.65239143;stroke-miterlimit:4;stroke-dasharray:none;stroke-opacity:1"
         id="path147"
         inkscape:connector-curvature="0" />
      <path
         d="m -236.60234,-877.63702 q 0,-266.24658 94.51447,-464.54178 94.514476,-198.295 267.48215,-303.3111 172.9676,-105.0161 397.20806,-105.0161 184.08691,0 326.16749,66.7161 142.69841,66.0984 238.44817,184.087 95.7501,117.9886 143.3162,269.3354 48.184,151.3468 48.184,322.46104 0,184.70489 -45.0952,348.40629 -44.4776,163.70182 -136.5211,287.8678 -91.4256,124.16601 -237.21283,195.824161 -145.16904,71.0404299 -337.28673,71.0404299 -159.37745,0 -297.75166,-54.9791499 -137.756373,-54.979121 -242.15474,-164.319381 -103.7806,-109.95805 -161.84832,-274.27722 -57.44996,-164.93717 -57.44996,-379.29349 z m 485.54497,0 q 0,536.19982 273.65971,536.19982 153.19982,0 211.88519,-148.8759 58.68538,-148.87569 58.68538,-415.12224 0,-508.40146 -270.57057,-508.40146 -100.69207,0 -161.2306,65.4806 -60.53888,65.4807 -86.48401,184.7049 -25.9451,118.6063 -25.9451,286.01428 z"
         style="font-style:normal;font-variant:normal;font-weight:normal;font-stretch:normal;font-size:115.00834656px;line-height:1.25;font-family:'Franklin Gothic';-inkscape-font-specification:'Franklin Gothic, Normal';font-variant-ligatures:normal;font-variant-caps:normal;font-variant-numeric:normal;text-align:start;letter-spacing:0px;word-spacing:0px;writing-mode:lr-tb;text-anchor:start;fill:#aa4400;fill-opacity:1;stroke:#ffffff;stroke-width:17.65239143;stroke-miterlimit:4;stroke-dasharray:none;stroke-opacity:1"
         id="path149"
         inkscape:connector-curvature="0" />
    </g>
  </g>
</svg>
