<?xml version="1.0" encoding="UTF-8" standalone="no"?>
<!-- Created with Inkscape (http://www.inkscape.org/) -->

<svg
   xmlns:dc="http://purl.org/dc/elements/1.1/"
   xmlns:cc="http://creativecommons.org/ns#"
   xmlns:rdf="http://www.w3.org/1999/02/22-rdf-syntax-ns#"
   xmlns:svg="http://www.w3.org/2000/svg"
   xmlns="http://www.w3.org/2000/svg"
   xmlns:sodipodi="http://sodipodi.sourceforge.net/DTD/sodipodi-0.dtd"
   xmlns:inkscape="http://www.inkscape.org/namespaces/inkscape"
   width="523.33325"
   height="488.87146"
   id="svg2"
   version="1.1"
   inkscape:version="0.92.4 (33fec40, 2019-01-16)"
   sodipodi:docname="logo_peppro_2.svg">
  <defs
     id="defs4">
    <inkscape:path-effect
       effect="skeletal"
       id="path-effect915"
       is_visible="true"
       pattern="M 0,0 H 1"
       copytype="single_stretched"
       prop_scale="1000000"
       scale_y_rel="true"
       spacing="0"
       normal_offset="0"
       tang_offset="0"
       prop_units="true"
       vertical_pattern="false"
       fuse_tolerance="0" />
    <inkscape:path-effect
       effect="skeletal"
       id="path-effect915-6"
       is_visible="true"
       pattern="M 0,0 H 1"
       copytype="single_stretched"
       prop_scale="1.01"
       scale_y_rel="true"
       spacing="0"
       normal_offset="0"
       tang_offset="0"
       prop_units="true"
       vertical_pattern="false"
       fuse_tolerance="0" />
  </defs>
  <sodipodi:namedview
     id="base"
     pagecolor="#ffffff"
     bordercolor="#666666"
     borderopacity="1.0"
     inkscape:pageopacity="0.0"
     inkscape:pageshadow="2"
     inkscape:zoom="1.4"
     inkscape:cx="242.33208"
     inkscape:cy="230.60768"
     inkscape:document-units="px"
     inkscape:current-layer="layer1"
     showgrid="false"
     fit-margin-top="0"
     fit-margin-left="0"
     fit-margin-right="0"
     fit-margin-bottom="0"
     inkscape:window-width="1920"
     inkscape:window-height="1124"
     inkscape:window-x="0"
     inkscape:window-y="0"
     inkscape:window-maximized="1"
     inkscape:snap-global="false" />
  <metadata
     id="metadata7">
    <rdf:RDF>
      <cc:Work
         rdf:about="">
        <dc:format>image/svg+xml</dc:format>
        <dc:type
           rdf:resource="http://purl.org/dc/dcmitype/StillImage" />
        <dc:title />
      </cc:Work>
    </rdf:RDF>
  </metadata>
  <g
     inkscape:label="Layer 1"
     inkscape:groupmode="layer"
     id="layer1"
     transform="translate(462.33455,150.124)">
    <g
       id="g4836"
       style="stroke:#aa4400;stroke-opacity:1"
       transform="translate(-31.428571,-2.8571429)">
      <path
         sodipodi:nodetypes="czzzc"
         inkscape:connector-curvature="0"
         id="path4750"
         d="m -430.17218,126.41632 c 0,0 209.2189,-2.18885 267.94297,-45.961942 58.72407,-43.773088 42.97762,-251.234838 62.629454,-210.111728 19.651831,41.123107 17.423741,131.298029 62.576367,168.808777 45.1526259,37.510748 122.050184,41.75329 129.352622,40.292802"
         style="fill:none;stroke:#aa4400;stroke-width:1px;stroke-linecap:butt;stroke-linejoin:miter;stroke-opacity:1" />
      <path
         sodipodi:nodetypes="czzzc"
         inkscape:connector-curvature="0"
         id="path4750-0"
         d="m -424.18402,126.29694 c 0,0 203.81842,-0.40314 262.54249,-44.176229 58.72407,-43.77309 39.76334,-265.163411 62.629449,-210.111731 22.866113,55.051681 17.423737,131.8031155 62.576367,169.313856 45.1526295,37.51075 123.28119,38.359154 123.28119,38.359154"
         style="fill:none;stroke:#aa4400;stroke-width:2;stroke-linecap:butt;stroke-linejoin:miter;stroke-miterlimit:4;stroke-dasharray:none;stroke-opacity:1" />
      <path
         sodipodi:nodetypes="czzzc"
         inkscape:connector-curvature="0"
         id="path4750-0-4"
         d="m -414.41814,125.7915 c 0,0 190.53543,3.13766 249.2595,-48.492572 58.72407,-51.630233 45.29905,-268.377708 63.52231,-212.968878 18.223258,55.408826 21.61754,140.1653397 66.770175,177.676079 45.15263,37.51075 112.658811,37.496936 112.658811,37.496936"
         style="fill:none;stroke:#aa4400;stroke-width:4;stroke-linecap:butt;stroke-linejoin:miter;stroke-miterlimit:4;stroke-dasharray:none;stroke-opacity:1" />
      <path
         sodipodi:nodetypes="czzzc"
         inkscape:connector-curvature="0"
         id="path4750-0-4-2"
         d="m -404.61872,125.60103 c 0,0 181.66325,-2.74995 240.38732,-46.523044 58.72407,-43.77309 41.54906,-264.449156 62.62945,-210.111746 21.080395,54.337406 18.938966,133.3183569 64.091604,170.8291 C 7.6422838,77.30609 63.784252,79.312584 63.784252,79.312584"
         style="fill:none;stroke:#aa4400;stroke-width:6;stroke-linecap:butt;stroke-linejoin:miter;stroke-miterlimit:4;stroke-dasharray:none;stroke-opacity:1" />
      <path
         sodipodi:nodetypes="czzzc"
         inkscape:connector-curvature="0"
         id="path4750-0-4-2-2"
         d="m -391.74962,125.12191 c 0,0 165.2161,-4.81358 223.94017,-48.586677 58.72407,-43.77309 48.87049,-266.234863 67.09374,-211.183173 18.223254,55.05169 23.984466,145.721188 67.708538,178.58907 43.724071,32.867883 86.268585,34.343932 86.268585,34.343932"
         style="fill:none;stroke:#aa4400;stroke-width:8;stroke-linecap:butt;stroke-linejoin:miter;stroke-miterlimit:4;stroke-dasharray:none;stroke-opacity:1" />
    </g>
    <g
       id="g5269">
      <path
         sodipodi:nodetypes="czcc"
         inkscape:connector-curvature="0"
         id="path4750-05"
         d="m -72.737827,201.31059 c -31.724123,-0.47753 -93.789863,-0.73179 -111.101483,9.67142 -17.31162,10.40321 -28.13812,160.94586 -37.94286,114.71928 -24.52122,-121.76339 -116.55967,-107.7423 -240.54234,-109.82468"
         style="fill:none;stroke:#000080;stroke-width:1.03219068px;stroke-linecap:butt;stroke-linejoin:miter;stroke-opacity:1" />
      <path
         sodipodi:nodetypes="cscc"
         inkscape:connector-curvature="0"
         id="path4750-0-5"
         d="m -81.449977,201.14401 c 0,0 -90.579163,-1.57666 -105.379073,10.21376 -24.61708,19.61132 -23.44074,161.85624 -34.9303,111.83845 -22.87246,-113.30002 -107.80538,-106.69799 -235.1966,-107.10604"
         style="fill:none;stroke:#000080;stroke-width:2.09580517;stroke-linecap:butt;stroke-linejoin:miter;stroke-miterlimit:4;stroke-dasharray:none;stroke-opacity:1" />
      <path
         sodipodi:nodetypes="czcc"
         inkscape:connector-curvature="0"
         id="path4750-0-4-29"
         d="m -90.718791,200.92839 c -31.947459,0.0993 -75.247279,1.16516 -93.160579,7.66376 -17.91329,6.49861 -21.11805,147.23005 -38.06491,121.90952 -14.31068,-101.89153 -93.03064,-114.67317 -226.33377,-114.46203"
         style="fill:none;stroke:#000080;stroke-width:4.20149088;stroke-linecap:butt;stroke-linejoin:miter;stroke-miterlimit:4;stroke-dasharray:none;stroke-opacity:1" />
      <path
         sodipodi:nodetypes="cscc"
         inkscape:connector-curvature="0"
         id="path4750-0-4-2-0"
         d="m -96.023204,200.86829 c -0.148862,-0.007 -65.397016,0.37806 -83.069226,5.64556 -27.69428,8.25474 -29.50915,165.2138 -41.71181,115.83939 -22.12893,-101.47108 -113.31867,-105.9287 -214.87589,-106.39065"
         style="fill:none;stroke:#000080;stroke-width:6.23001528;stroke-linecap:butt;stroke-linejoin:miter;stroke-miterlimit:4;stroke-dasharray:none;stroke-opacity:1" />
      <path
         sodipodi:nodetypes="cscc"
         inkscape:connector-curvature="0"
         id="path4750-0-4-2-2-2"
         d="m -111.09266,200.84507 c 0,0 -58.78343,-0.7135 -69.87524,6.67966 -28.44118,18.95725 -28.85241,170.01442 -43.56211,110.39226 -26.65531,-98.97154 -106.59235,-101.75105 -199.79002,-101.63785"
         style="fill:none;stroke:#000080;stroke-width:8.31671524;stroke-linecap:butt;stroke-linejoin:miter;stroke-miterlimit:4;stroke-dasharray:none;stroke-opacity:1" />
    </g>
    <path
       inkscape:connector-curvature="0"
       id="path138"
       style="font-style:normal;font-variant:normal;font-weight:normal;font-stretch:normal;font-size:115.00834656px;line-height:1.25;font-family:'Franklin Gothic';-inkscape-font-specification:'Franklin Gothic, Normal';font-variant-ligatures:normal;font-variant-caps:normal;font-variant-numeric:normal;text-align:start;letter-spacing:0px;word-spacing:0px;writing-mode:lr-tb;text-anchor:start;fill:#000080;fill-opacity:1;stroke:none;stroke-width:0.58492756"
       d="m -378.41921,209.64284 v -74.90729 h 34.35535 q 9.18519,0 15.62853,2.68701 6.44335,2.68701 9.7884,7.86911 3.34506,5.18209 3.34506,12.4754 0,6.27883 -2.79669,11.46093 -2.76926,5.15467 -7.64975,7.95136 -3.94826,2.19347 -8.49973,3.1257 -4.55147,0.93223 -11.37867,0.93223 h -12.22865 v 28.40555 z m 20.56385,-60.64968 v 17.41073 h 10.09001 q 5.81272,0 8.36263,-2.00155 2.54992,-2.00155 2.54992,-6.52559 0,-4.52405 -2.54992,-6.69012 -2.54991,-2.19347 -8.36263,-2.19347 z" />
    <path
       inkscape:connector-curvature="0"
       id="path140"
       style="font-style:normal;font-variant:normal;font-weight:normal;font-stretch:normal;font-size:115.00834656px;line-height:1.25;font-family:'Franklin Gothic';-inkscape-font-specification:'Franklin Gothic, Normal';font-variant-ligatures:normal;font-variant-caps:normal;font-variant-numeric:normal;text-align:start;letter-spacing:0px;word-spacing:0px;writing-mode:lr-tb;text-anchor:start;fill:#000080;fill-opacity:1;stroke:none;stroke-width:0.58492756"
       d="m -305.15703,209.64284 v -74.90729 h 53.90473 v 15.71079 h -33.34088 v 13.38022 h 21.22191 v 15.71078 h -21.22191 v 14.39471 h 34.90373 v 15.71079 z" />
    <path
       inkscape:connector-curvature="0"
       id="path142"
       style="font-style:normal;font-variant:normal;font-weight:normal;font-stretch:normal;font-size:115.00834656px;line-height:1.25;font-family:'Franklin Gothic';-inkscape-font-specification:'Franklin Gothic, Normal';font-variant-ligatures:normal;font-variant-caps:normal;font-variant-numeric:normal;text-align:start;letter-spacing:0px;word-spacing:0px;writing-mode:lr-tb;text-anchor:start;fill:#000080;fill-opacity:1;stroke:none;stroke-width:0.58492756"
       d="m -240.66877,209.64284 v -74.90729 h 34.35536 q 9.18519,0 15.62853,2.68701 6.44334,2.68701 9.7884,7.86911 3.34505,5.18209 3.34505,12.4754 0,6.27883 -2.79669,11.46093 -2.76926,5.15467 -7.64975,7.95136 -3.94826,2.19347 -8.49973,3.1257 -4.55146,0.93223 -11.37867,0.93223 h -12.22864 v 28.40555 z m 20.56386,-60.64968 v 17.41073 h 10.09 q 5.81272,0 8.36264,-2.00155 2.54992,-2.00155 2.54992,-6.52559 0,-4.52405 -2.54992,-6.69012 -2.54992,-2.19347 -8.36264,-2.19347 z" />
    <path
       inkscape:connector-curvature="0"
       id="path145"
       style="font-style:normal;font-variant:normal;font-weight:normal;font-stretch:normal;font-size:115.00834656px;line-height:1.25;font-family:'Franklin Gothic';-inkscape-font-specification:'Franklin Gothic, Normal';font-variant-ligatures:normal;font-variant-caps:normal;font-variant-numeric:normal;text-align:start;letter-spacing:0px;word-spacing:0px;writing-mode:lr-tb;text-anchor:start;fill:#aa4400;fill-opacity:1;stroke:none;stroke-width:0.58492756"
       d="M -168.14213,161.04063 V 86.13335 h 34.35536 q 9.18519,0 15.62853,2.687011 6.44335,2.687011 9.7884,7.869109 3.34505,5.18209 3.34505,12.4754 0,6.27883 -2.79669,11.46092 -2.76926,5.15469 -7.64975,7.95136 -3.94826,2.19348 -8.49972,3.12571 -4.55148,0.93223 -11.37868,0.93223 h -12.22864 v 28.40554 z m 20.56386,-60.64967 v 17.41074 h 10.09 q 5.81272,0 8.36263,-2.00155 2.54993,-2.00155 2.54993,-6.52561 0,-4.52404 -2.54993,-6.6901 -2.54991,-2.19348 -8.36263,-2.19348 z" />
    <path
       inkscape:connector-curvature="0"
       id="path147"
       style="font-style:normal;font-variant:normal;font-weight:normal;font-stretch:normal;font-size:115.00834656px;line-height:1.25;font-family:'Franklin Gothic';-inkscape-font-specification:'Franklin Gothic, Normal';font-variant-ligatures:normal;font-variant-caps:normal;font-variant-numeric:normal;text-align:start;letter-spacing:0px;word-spacing:0px;writing-mode:lr-tb;text-anchor:start;fill:#aa4400;fill-opacity:1;stroke:none;stroke-width:0.58492756"
       d="M -94.879949,161.04063 V 86.13335 h 32.792502 q 10.391604,0 17.191387,2.138642 5.977228,1.837038 9.706142,7.21106 3.756331,5.346608 3.756331,11.981878 0,8.06103 -5.154674,13.38022 -2.851522,3.01603 -8.664239,5.59336 l 13.599566,34.60212 h -23.031523 l -10.309349,-30.98287 h -9.431956 v 30.98287 z m 20.454187,-60.64967 v 15.62853 h 12.118967 q 4.386957,0 6.85462,-2.0838 2.467664,-2.0838 2.467664,-5.7853 0,-3.70149 -2.440245,-5.73046 -2.412827,-2.02897 -6.882039,-2.02897 z" />
    <path
       inkscape:connector-curvature="0"
       id="path149"
       style="font-style:normal;font-variant:normal;font-weight:normal;font-stretch:normal;font-size:115.00834656px;line-height:1.25;font-family:'Franklin Gothic';-inkscape-font-specification:'Franklin Gothic, Normal';font-variant-ligatures:normal;font-variant-caps:normal;font-variant-numeric:normal;text-align:start;letter-spacing:0px;word-spacing:0px;writing-mode:lr-tb;text-anchor:start;fill:#aa4400;fill-opacity:1;stroke:none;stroke-width:0.58492756"
       d="m -24.661222,123.64183 q 0,-11.81736 4.195027,-20.6187 4.195027,-8.801328 11.872202,-13.462469 7.6771739,-4.661142 17.6300819,-4.661142 8.1707071,0 14.4769581,2.961196 6.333668,2.933777 10.583533,8.170705 4.249864,5.23693 6.361087,11.95446 2.138642,6.71753 2.138642,14.31244 0,8.19813 -2.00155,15.46402 -1.974131,7.26591 -6.059484,12.77702 -4.057935,5.51111 -10.528696,8.69166 -6.443343,3.15313 -14.9704901,3.15313 -7.0739677,0 -13.2157071,-2.44025 -6.1143208,-2.44025 -10.7480438,-7.29332 -4.606305,-4.88049 -7.183642,-12.1738 -2.549918,-7.32074 -2.549918,-16.83495 z m 21.5509245,0 q 0,23.79924 12.1463864,23.79924 6.7997831,0 9.4045391,-6.60786 2.604755,-6.60785 2.604755,-18.42521 0,-22.56541 -12.0092941,-22.56541 -4.469212,0 -7.1562235,2.90636 -2.6870106,2.90636 -3.8385867,8.19813 -1.1515762,5.26434 -1.1515762,12.69475 z" />
  </g>
</svg>
