<?xml version="1.0" encoding="UTF-8" standalone="no"?>
<!-- Created with Inkscape (http://www.inkscape.org/) -->

<svg
   xmlns:dc="http://purl.org/dc/elements/1.1/"
   xmlns:cc="http://creativecommons.org/ns#"
   xmlns:rdf="http://www.w3.org/1999/02/22-rdf-syntax-ns#"
   xmlns:svg="http://www.w3.org/2000/svg"
   xmlns="http://www.w3.org/2000/svg"
   xmlns:sodipodi="http://sodipodi.sourceforge.net/DTD/sodipodi-0.dtd"
   xmlns:inkscape="http://www.inkscape.org/namespaces/inkscape"
   width="3339.698"
   height="3101.6738"
   id="svg2"
   version="1.1"
   inkscape:version="0.92.4 (33fec40, 2019-01-16)"
   sodipodi:docname="peppro_logo.svg">
  <defs
     id="defs4">
    <inkscape:path-effect
       effect="skeletal"
       id="path-effect915"
       is_visible="true"
       pattern="M 0,0 H 1"
       copytype="single_stretched"
       prop_scale="1000000"
       scale_y_rel="true"
       spacing="0"
       normal_offset="0"
       tang_offset="0"
       prop_units="true"
       vertical_pattern="false"
       fuse_tolerance="0" />
    <inkscape:path-effect
       effect="skeletal"
       id="path-effect915-6"
       is_visible="true"
       pattern="M 0,0 H 1"
       copytype="single_stretched"
       prop_scale="1.01"
       scale_y_rel="true"
       spacing="0"
       normal_offset="0"
       tang_offset="0"
       prop_units="true"
       vertical_pattern="false"
       fuse_tolerance="0" />
  </defs>
  <sodipodi:namedview
     id="base"
     pagecolor="#ffffff"
     bordercolor="#666666"
     borderopacity="1.0"
     inkscape:pageopacity="0.0"
     inkscape:pageshadow="2"
     inkscape:zoom="0.0875"
     inkscape:cx="-3957.016"
     inkscape:cy="986.98751"
     inkscape:document-units="px"
     inkscape:current-layer="layer1"
     showgrid="false"
     fit-margin-top="0"
     fit-margin-left="0"
     fit-margin-right="0"
     fit-margin-bottom="0"
     inkscape:window-width="1920"
     inkscape:window-height="1124"
     inkscape:window-x="0"
     inkscape:window-y="0"
     inkscape:window-maximized="1"
     inkscape:snap-global="false" />
  <metadata
     id="metadata7">
    <rdf:RDF>
      <cc:Work
         rdf:about="">
        <dc:format>image/svg+xml</dc:format>
        <dc:type
           rdf:resource="http://purl.org/dc/dcmitype/StillImage" />
        <dc:title />
      </cc:Work>
    </rdf:RDF>
  </metadata>
  <g
     inkscape:label="Layer 1"
     inkscape:groupmode="layer"
     id="layer1"
     transform="translate(1937.2167,1519.8908)">
    <g
       id="g4836"
       style="stroke:#aa4400;stroke-opacity:1"
       transform="matrix(6.381606,0,0,6.381606,812.64674,-580.09177)">
      <path
         sodipodi:nodetypes="czzzc"
         inkscape:connector-curvature="0"
         id="path4750"
         d="m -430.17218,126.41632 c 0,0 209.2189,-2.18885 267.94297,-45.961942 58.72407,-43.773088 42.97762,-251.234838 62.629454,-210.111728 19.651831,41.123107 17.423741,131.298029 62.576367,168.808777 45.1526259,37.510748 122.050184,41.75329 129.352622,40.292802"
         style="fill:none;stroke:#aa4400;stroke-width:1px;stroke-linecap:butt;stroke-linejoin:miter;stroke-opacity:1" />
      <path
         sodipodi:nodetypes="czzzc"
         inkscape:connector-curvature="0"
         id="path4750-0"
         d="m -424.18402,126.29694 c 0,0 203.81842,-0.40314 262.54249,-44.176229 58.72407,-43.77309 39.76334,-265.163411 62.629449,-210.111731 22.866113,55.051681 17.423737,131.8031155 62.576367,169.313856 45.1526295,37.51075 123.28119,38.359154 123.28119,38.359154"
         style="fill:none;stroke:#aa4400;stroke-width:2;stroke-linecap:butt;stroke-linejoin:miter;stroke-miterlimit:4;stroke-dasharray:none;stroke-opacity:1" />
      <path
         sodipodi:nodetypes="czzzc"
         inkscape:connector-curvature="0"
         id="path4750-0-4"
         d="m -414.41814,125.7915 c 0,0 190.53543,3.13766 249.2595,-48.492572 58.72407,-51.630233 45.29905,-268.377708 63.52231,-212.968878 18.223258,55.408826 21.61754,140.1653397 66.770175,177.676079 45.15263,37.51075 112.658811,37.496936 112.658811,37.496936"
         style="fill:none;stroke:#aa4400;stroke-width:4;stroke-linecap:butt;stroke-linejoin:miter;stroke-miterlimit:4;stroke-dasharray:none;stroke-opacity:1" />
      <path
         sodipodi:nodetypes="czzzc"
         inkscape:connector-curvature="0"
         id="path4750-0-4-2"
         d="m -404.61872,125.60103 c 0,0 181.66325,-2.74995 240.38732,-46.523044 58.72407,-43.77309 41.54906,-264.449156 62.62945,-210.111746 21.080395,54.337406 18.938966,133.3183569 64.091604,170.8291 C 7.6422838,77.30609 63.784252,79.312584 63.784252,79.312584"
         style="fill:none;stroke:#aa4400;stroke-width:6;stroke-linecap:butt;stroke-linejoin:miter;stroke-miterlimit:4;stroke-dasharray:none;stroke-opacity:1" />
      <path
         sodipodi:nodetypes="czzzc"
         inkscape:connector-curvature="0"
         id="path4750-0-4-2-2"
         d="m -391.74962,125.12191 c 0,0 165.2161,-4.81358 223.94017,-48.586677 58.72407,-43.77309 48.87049,-266.234863 67.09374,-211.183173 18.223254,55.05169 23.984466,145.721188 67.708538,178.58907 43.724071,32.867883 86.268585,34.343932 86.268585,34.343932"
         style="fill:none;stroke:#aa4400;stroke-width:8;stroke-linecap:butt;stroke-linejoin:miter;stroke-miterlimit:4;stroke-dasharray:none;stroke-opacity:1" />
    </g>
    <g
       id="g5269"
       transform="matrix(6.381606,0,0,6.381606,1013.2115,-561.85861)">
      <path
         sodipodi:nodetypes="czcc"
         inkscape:connector-curvature="0"
         id="path4750-05"
         d="m -72.737827,201.31059 c -31.724123,-0.47753 -93.789863,-0.73179 -111.101483,9.67142 -17.31162,10.40321 -28.13812,160.94586 -37.94286,114.71928 -24.52122,-121.76339 -116.55967,-107.7423 -240.54234,-109.82468"
         style="fill:none;stroke:#000080;stroke-width:1.03219068px;stroke-linecap:butt;stroke-linejoin:miter;stroke-opacity:1" />
      <path
         sodipodi:nodetypes="cscc"
         inkscape:connector-curvature="0"
         id="path4750-0-5"
         d="m -81.449977,201.14401 c 0,0 -90.579163,-1.57666 -105.379073,10.21376 -24.61708,19.61132 -23.44074,161.85624 -34.9303,111.83845 -22.87246,-113.30002 -107.80538,-106.69799 -235.1966,-107.10604"
         style="fill:none;stroke:#000080;stroke-width:2.09580517;stroke-linecap:butt;stroke-linejoin:miter;stroke-miterlimit:4;stroke-dasharray:none;stroke-opacity:1" />
      <path
         sodipodi:nodetypes="czcc"
         inkscape:connector-curvature="0"
         id="path4750-0-4-29"
         d="m -90.718791,200.92839 c -31.947459,0.0993 -75.247279,1.16516 -93.160579,7.66376 -17.91329,6.49861 -21.11805,147.23005 -38.06491,121.90952 -14.31068,-101.89153 -93.03064,-114.67317 -226.33377,-114.46203"
         style="fill:none;stroke:#000080;stroke-width:4.20149088;stroke-linecap:butt;stroke-linejoin:miter;stroke-miterlimit:4;stroke-dasharray:none;stroke-opacity:1" />
      <path
         sodipodi:nodetypes="cscc"
         inkscape:connector-curvature="0"
         id="path4750-0-4-2-0"
         d="m -96.023204,200.86829 c -0.148862,-0.007 -65.397016,0.37806 -83.069226,5.64556 -27.69428,8.25474 -29.50915,165.2138 -41.71181,115.83939 -22.12893,-101.47108 -113.31867,-105.9287 -214.87589,-106.39065"
         style="fill:none;stroke:#000080;stroke-width:6.23001528;stroke-linecap:butt;stroke-linejoin:miter;stroke-miterlimit:4;stroke-dasharray:none;stroke-opacity:1" />
      <path
         sodipodi:nodetypes="cscc"
         inkscape:connector-curvature="0"
         id="path4750-0-4-2-2-2"
         d="m -111.09266,200.84507 c 0,0 -58.78343,-0.7135 -69.87524,6.67966 -28.44118,18.95725 -28.85241,170.01442 -43.56211,110.39226 -26.65531,-98.97154 -106.59235,-101.75105 -199.79002,-101.63785"
         style="fill:none;stroke:#000080;stroke-width:8.31671524;stroke-linecap:butt;stroke-linejoin:miter;stroke-miterlimit:4;stroke-dasharray:none;stroke-opacity:1" />
    </g>
    <path
       inkscape:connector-curvature="0"
       id="path138"
       style="font-style:normal;font-variant:normal;font-weight:normal;font-stretch:normal;font-size:115.00834656px;line-height:1.25;font-family:'Franklin Gothic';-inkscape-font-specification:'Franklin Gothic, Normal';font-variant-ligatures:normal;font-variant-caps:normal;font-variant-numeric:normal;text-align:start;letter-spacing:0px;word-spacing:0px;writing-mode:lr-tb;text-anchor:start;fill:#000080;fill-opacity:1;stroke:#ffffff;stroke-width:5;stroke-opacity:1;stroke-miterlimit:4;stroke-dasharray:none"
       d="M -1401.7108,775.9994 V 297.97058 h 219.2423 q 58.6163,0 99.7351,17.14744 41.1189,17.14744 62.4657,50.21756 21.34689,33.07006 21.34689,79.61309 0,40.06902 -17.84739,73.13914 -17.6723,32.89507 -48.8177,50.74245 -25.1962,13.99786 -54.2419,19.94698 -29.0457,5.94913 -72.6142,5.94913 h -78.0384 V 775.9994 Z m 131.2304,-387.04237 v 111.10842 h 64.3905 q 37.0944,0 53.367,-12.7731 16.2726,-12.7731 16.2726,-41.64374 0,-28.87071 -16.2726,-42.69371 -16.2726,-13.99787 -53.367,-13.99787 z" />
    <path
       inkscape:connector-curvature="0"
       id="path140"
       style="font-style:normal;font-variant:normal;font-weight:normal;font-stretch:normal;font-size:115.00834656px;line-height:1.25;font-family:'Franklin Gothic';-inkscape-font-specification:'Franklin Gothic, Normal';font-variant-ligatures:normal;font-variant-caps:normal;font-variant-numeric:normal;text-align:start;letter-spacing:0px;word-spacing:0px;writing-mode:lr-tb;text-anchor:start;fill:#000080;fill-opacity:1;stroke:#ffffff;stroke-width:5;stroke-opacity:1;stroke-miterlimit:4;stroke-dasharray:none"
       d="M -934.18043,775.9994 V 297.97058 h 343.99874 v 100.26008 h -212.76836 v 85.38729 h 135.42987 v 100.26001 h -135.42987 v 91.86136 h 222.74186 V 775.9994 Z" />
    <path
       inkscape:connector-curvature="0"
       id="path142"
       style="font-style:normal;font-variant:normal;font-weight:normal;font-stretch:normal;font-size:115.00834656px;line-height:1.25;font-family:'Franklin Gothic';-inkscape-font-specification:'Franklin Gothic, Normal';font-variant-ligatures:normal;font-variant-caps:normal;font-variant-numeric:normal;text-align:start;letter-spacing:0px;word-spacing:0px;writing-mode:lr-tb;text-anchor:start;fill:#000080;fill-opacity:1;stroke:#ffffff;stroke-width:5;stroke-opacity:1;stroke-miterlimit:4;stroke-dasharray:none"
       d="M -522.64177,775.9994 V 297.97058 h 219.24237 q 58.61627,0 99.73513,17.14744 41.11885,17.14744 62.46571,50.21756 21.34679,33.07006 21.34679,79.61309 0,40.06902 -17.84737,73.13914 -17.67233,32.89507 -48.8177,50.74245 -25.19623,13.99786 -54.24192,19.94698 -29.04563,5.94913 -72.61419,5.94913 h -78.03836 V 775.9994 Z m 131.23046,-387.04237 v 111.10842 h 64.3904 q 37.09449,0 53.36707,-12.7731 16.27259,-12.7731 16.27259,-41.64374 0,-28.87071 -16.27259,-42.69371 -16.27258,-13.99787 -53.36707,-13.99787 z" />
    <path
       inkscape:connector-curvature="0"
       id="path145"
       style="font-style:normal;font-variant:normal;font-weight:normal;font-stretch:normal;font-size:115.00834656px;line-height:1.25;font-family:'Franklin Gothic';-inkscape-font-specification:'Franklin Gothic, Normal';font-variant-ligatures:normal;font-variant-caps:normal;font-variant-numeric:normal;text-align:start;letter-spacing:0px;word-spacing:0px;writing-mode:lr-tb;text-anchor:start;fill:#aa4400;fill-opacity:1;stroke:#ffffff;stroke-width:5;stroke-opacity:1;stroke-miterlimit:4;stroke-dasharray:none"
       d="M -59.805326,465.83924 V -12.189507 H 159.43705 q 58.61626,0 99.73512,17.1474457 41.11892,17.1474453 62.46571,50.2175533 21.34679,33.070057 21.34679,79.613088 0,40.06902 -17.84737,73.13908 -17.67233,32.8952 -48.81769,50.74244 -25.19624,13.99793 -54.24187,19.94705 -29.04575,5.94913 -72.61425,5.94913 H 71.425127 V 465.83924 Z M 71.425127,78.796943 V 189.90543 h 64.390403 q 37.09449,0 53.36701,-12.77311 16.27265,-12.7731 16.27265,-41.64387 0,-28.87064 -16.27265,-42.693582 -16.27252,-13.997925 -53.36701,-13.997925 z" />
    <path
       inkscape:connector-curvature="0"
       id="path147"
       style="font-style:normal;font-variant:normal;font-weight:normal;font-stretch:normal;font-size:115.00834656px;line-height:1.25;font-family:'Franklin Gothic';-inkscape-font-specification:'Franklin Gothic, Normal';font-variant-ligatures:normal;font-variant-caps:normal;font-variant-numeric:normal;text-align:start;letter-spacing:0px;word-spacing:0px;writing-mode:lr-tb;text-anchor:start;fill:#aa4400;fill-opacity:1;stroke:#ffffff;stroke-width:5;stroke-opacity:1;stroke-miterlimit:4;stroke-dasharray:none"
       d="M 407.72505,465.83924 V -12.189507 h 209.26883 q 66.31512,0 109.70865,13.6479708 38.14432,11.7232532 61.94078,46.0181442 23.97142,34.119945 23.97142,76.463622 0,51.44232 -32.8951,85.38729 -18.19729,19.24712 -55.29176,35.69462 l 86.78708,220.8171 H 664.23684 L 598.44664,268.11877 H 538.25561 V 465.83924 Z M 538.25561,78.796943 v 99.735117 h 77.33847 q 27.99583,0 43.74349,-13.29799 15.74766,-13.29799 15.74766,-36.9195 0,-23.62145 -15.57269,-36.56954 -15.39771,-12.948087 -43.91846,-12.948087 z" />
    <path
       inkscape:connector-curvature="0"
       id="path149"
       style="font-style:normal;font-variant:normal;font-weight:normal;font-stretch:normal;font-size:115.00834656px;line-height:1.25;font-family:'Franklin Gothic';-inkscape-font-specification:'Franklin Gothic, Normal';font-variant-ligatures:normal;font-variant-caps:normal;font-variant-numeric:normal;text-align:start;letter-spacing:0px;word-spacing:0px;writing-mode:lr-tb;text-anchor:start;fill:#aa4400;fill-opacity:1;stroke:#ffffff;stroke-width:5;stroke-opacity:1;stroke-miterlimit:4;stroke-dasharray:none"
       d="m 855.8333,227.17483 q 0,-75.41373 26.77101,-131.580415 26.77101,-56.166608 75.76371,-85.9121734 48.99268,-29.7455716 112.50828,-29.7455716 52.1422,0 92.3862,18.897186 40.419,18.722209 67.5399,52.14222 27.121,33.420024 40.594,76.288654 13.648,42.86863 13.648,91.33635 0,52.31724 -12.7731,98.68529 -12.5982,46.36817 -38.6693,81.5379 -25.8961,35.16974 -67.19,55.46675 -41.1188,20.12204 -95.5357,20.12204 -45.1433,0 -84.33748,-15.57272 -39.01918,-15.57271 -68.58978,-46.54309 -29.39562,-31.14537 -45.84317,-77.6884 Q 855.8333,287.89077 855.8333,227.17483 Z m 137.52951,0 q 0,151.87738 77.51349,151.87738 43.3935,0 60.016,-42.16876 16.6225,-42.1687 16.6225,-117.58243 0,-144.003559 -76.6385,-144.003559 -28.5208,0 -45.6682,18.547245 -17.1475,18.547244 -24.4964,52.317234 -7.34889,33.59495 -7.34889,81.01289 z" />
  </g>
</svg>
